<?xml version="1.0" encoding="utf-8"?>
<!-- Generator: Adobe Illustrator 26.0.1, SVG Export Plug-In . SVG Version: 6.00 Build 0)  -->
<svg version="1.1" id="Layer_1" xmlns="http://www.w3.org/2000/svg" xmlns:xlink="http://www.w3.org/1999/xlink" x="0px" y="0px"
	 viewBox="-27.983 -20.275 49.5 44.75" enable-background="new -27.983 -20.275 49.5 44.75" xml:space="preserve">
<g>
	<g>
		<g>
			<path fill="#FFCB3F" d="M-5.346,0.714l0.613-1.121h0.318l0.609,1.121h-0.381l-0.292-0.568C-4.49,0.123-4.502,0.099-4.514,0.073
				c-0.012-0.025-0.023-0.052-0.035-0.079c-0.012-0.027-0.023-0.054-0.034-0.08c-0.011-0.026-0.021-0.051-0.028-0.073l0.066-0.002
				c-0.009,0.027-0.019,0.053-0.03,0.079c-0.011,0.025-0.022,0.051-0.033,0.076c-0.011,0.025-0.023,0.05-0.037,0.075
				S-4.67,0.12-4.682,0.147l-0.292,0.567H-5.346z M-5.054,0.499l0.117-0.205h0.712l0.115,0.205H-5.054z"/>
			<path fill="#FFCB3F" d="M-3.399-0.305c-0.066,0-0.118-0.011-0.156-0.034s-0.057-0.056-0.057-0.099
				c0-0.039,0.019-0.07,0.058-0.095c0.038-0.024,0.09-0.037,0.155-0.037c0.066,0,0.118,0.011,0.155,0.034
				c0.037,0.023,0.056,0.056,0.056,0.097c0,0.04-0.019,0.071-0.057,0.096C-3.283-0.317-3.334-0.305-3.399-0.305z M-3.575,0.714
				v-0.851h0.354v0.851H-3.575z"/>
			<path fill="#FFCB3F" d="M-2.832,0.714v-1.185h0.354v1.185H-2.832z"/>
			<path fill="#FFCB3F" d="M-1.547,0.73c-0.129,0-0.242-0.019-0.338-0.057c-0.096-0.038-0.17-0.089-0.224-0.155
				c-0.053-0.065-0.08-0.141-0.08-0.225c0-0.065,0.015-0.125,0.044-0.179c0.029-0.054,0.071-0.102,0.124-0.142
				c0.053-0.04,0.116-0.071,0.19-0.093c0.072-0.022,0.152-0.033,0.24-0.033c0.082,0,0.158,0.011,0.227,0.032s0.127,0.051,0.178,0.09
				c0.051,0.038,0.088,0.083,0.115,0.136c0.026,0.053,0.038,0.11,0.035,0.171l-0.002,0.069h-0.936l-0.052-0.144h0.699l-0.038,0.03
				V0.198c-0.002-0.027-0.014-0.05-0.033-0.071C-1.417,0.106-1.444,0.09-1.476,0.078S-1.545,0.06-1.586,0.06
				c-0.058,0-0.107,0.008-0.147,0.025s-0.071,0.041-0.092,0.072c-0.021,0.032-0.03,0.07-0.03,0.116c0,0.047,0.014,0.088,0.041,0.123
				s0.066,0.062,0.119,0.081c0.053,0.019,0.114,0.029,0.187,0.029c0.05,0,0.095-0.005,0.134-0.016s0.082-0.029,0.127-0.055
				l0.166,0.17c-0.045,0.029-0.094,0.052-0.146,0.07s-0.104,0.032-0.158,0.041C-1.44,0.725-1.493,0.73-1.547,0.73z"/>
			<path fill="#FFCB3F" d="M-0.358,0.73c-0.115,0-0.217-0.014-0.305-0.04C-0.75,0.663-0.821,0.627-0.871,0.582l0.215-0.134
				c0.045,0.033,0.098,0.057,0.154,0.073c0.058,0.016,0.112,0.023,0.164,0.023c0.021,0,0.039-0.001,0.055-0.004
				c0.017-0.003,0.03-0.008,0.041-0.014c0.012-0.006,0.02-0.013,0.025-0.021s0.01-0.018,0.01-0.028c0-0.021-0.014-0.038-0.04-0.05
				c-0.014-0.005-0.036-0.012-0.066-0.019C-0.345,0.4-0.385,0.392-0.434,0.382c-0.068-0.013-0.129-0.028-0.18-0.045
				s-0.093-0.039-0.125-0.062C-0.768,0.252-0.791,0.228-0.807,0.2c-0.017-0.027-0.025-0.058-0.025-0.092
				c0-0.04,0.014-0.075,0.039-0.107c0.025-0.032,0.061-0.06,0.104-0.083c0.045-0.023,0.094-0.042,0.151-0.054
				c0.057-0.012,0.115-0.019,0.176-0.019c0.065,0,0.127,0.005,0.187,0.016c0.059,0.011,0.113,0.026,0.164,0.045
				s0.096,0.042,0.137,0.069l-0.187,0.15c-0.026-0.018-0.056-0.034-0.089-0.049c-0.033-0.014-0.068-0.026-0.104-0.034
				C-0.289,0.034-0.323,0.03-0.352,0.03c-0.021,0-0.041,0.001-0.059,0.004c-0.017,0.002-0.031,0.007-0.043,0.013
				S-0.474,0.059-0.48,0.068c-0.006,0.008-0.009,0.017-0.009,0.028s0.004,0.021,0.012,0.03c0.008,0.01,0.02,0.018,0.035,0.024
				c0.014,0.006,0.037,0.013,0.07,0.021c0.032,0.008,0.076,0.018,0.133,0.029c0.069,0.014,0.129,0.03,0.18,0.047
				c0.049,0.017,0.09,0.037,0.119,0.061c0.023,0.018,0.041,0.04,0.053,0.063s0.018,0.05,0.018,0.078
				c0,0.054-0.021,0.103-0.062,0.145c-0.043,0.042-0.1,0.075-0.174,0.099S-0.264,0.73-0.358,0.73z"/>
		</g>
	</g>
	<g>
		<defs>
			<path id="SVGID_1_" d="M-5.595-1.849c1.373,0.456,2.011,1.973,1.426,3.388c-0.586,1.416-2.173,2.193-3.546,1.737
				C-9.087,2.82-9.725,1.303-9.14-0.112C-8.555-1.527-6.967-2.304-5.595-1.849z"/>
		</defs>
		<clipPath id="SVGID_00000170996643684884626790000001660544876591891869_">
			<use xlink:href="#SVGID_1_"  overflow="visible"/>
		</clipPath>
		<g clip-path="url(#SVGID_00000170996643684884626790000001660544876591891869_)">
			<g>
				<path fill="#F2570A" d="M-8.085,2.775C-8.216,2.462-7.96,2.172-7.488,2.08c-0.315-0.275-0.651-0.517-0.968-0.697
					c-0.069,0.31-0.24,0.485-0.434,0.412c-0.172-0.066-0.323-0.345-0.363-0.65c-0.053,0.024-0.084,0.082-0.078,0.157
					c0.01,0.123-0.249,0.232-0.381,0.391c-0.264,0.318-0.433,0.716-0.452,1.14C-10.211,3.817-9.44,4.588-8.45,4.544
					c0.488-0.021,0.941-0.237,1.281-0.568c0.085-0.083,0.162-0.173,0.232-0.269c0.069-0.097,0.078-0.29,0.181-0.292
					C-6.664,3.414-6.598,3.367-6.585,3.3c-0.135,0.029-0.286,0.041-0.444,0.031C-7.495,3.301-7.967,3.056-8.085,2.775z
					 M-8.538,2.725c-0.123-0.088-0.28-0.266-0.363-0.411c-0.09-0.157-0.072-0.24,0.053-0.171c0.147,0.083,0.348,0.31,0.434,0.487
					C-8.339,2.787-8.401,2.822-8.538,2.725z"/>
			</g>
			<g>
				<path fill="#47A81A" d="M-6.361,2.945c-0.026,0.185-0.344,0.33-0.693,0.308c-0.339-0.02-0.666-0.191-0.732-0.376
					c-0.083-0.234,0.201-0.424,0.641-0.412C-6.686,2.48-6.327,2.696-6.361,2.945z"/>
			</g>
			<g>
				<path fill="#0D7BD6" d="M-4.736-0.934c0.043,0.248-0.158,0.443-0.46,0.426c-0.331-0.017-0.622-0.261-0.631-0.536
					C-5.836-1.29-5.59-1.459-5.296-1.419C-5.023-1.379-4.776-1.162-4.736-0.934z"/>
			</g>
			<g>
				<path fill="#0D7BD6" d="M-8.631,1.081c0.006,0.323-0.13,0.542-0.298,0.491c-0.137-0.041-0.258-0.286-0.267-0.548
					c-0.01-0.266,0.099-0.499,0.237-0.515C-8.786,0.491-8.637,0.75-8.631,1.081z"/>
			</g>
			<g>
				<path fill="#47A81A" d="M-5.703,0.573c-0.033,0.661-0.617,1.226-1.27,1.234c-0.622,0.007-1.114-0.51-1.088-1.132
					c0.027-0.626,0.57-1.192,1.197-1.239C-6.205-0.611-5.671-0.092-5.703,0.573z"/>
			</g>
		</g>
	</g>
	<g>
		<g>
			<path fill="#0D7BD6" d="M-2.004,2.264c-0.066,0-0.125-0.009-0.18-0.026s-0.102-0.042-0.144-0.075S-2.407,2.09-2.44,2.043
				l0.143-0.172c0.049,0.073,0.099,0.123,0.147,0.149c0.049,0.026,0.103,0.04,0.16,0.04c0.032,0,0.059-0.005,0.084-0.014
				c0.024-0.009,0.044-0.022,0.059-0.04c0.014-0.017,0.021-0.038,0.021-0.061c0-0.017-0.003-0.033-0.011-0.047
				c-0.007-0.015-0.017-0.027-0.03-0.039C-1.88,1.847-1.896,1.837-1.914,1.828c-0.018-0.009-0.038-0.017-0.061-0.024
				c-0.022-0.007-0.046-0.013-0.073-0.017c-0.057-0.014-0.106-0.031-0.148-0.051c-0.042-0.02-0.078-0.044-0.106-0.074
				C-2.33,1.633-2.351,1.599-2.365,1.562s-0.021-0.08-0.021-0.127c0-0.048,0.01-0.093,0.03-0.134
				c0.02-0.041,0.048-0.077,0.084-0.107c0.036-0.03,0.077-0.053,0.125-0.069C-2.1,1.109-2.05,1.1-1.998,1.1
				c0.065,0,0.122,0.008,0.17,0.023c0.048,0.016,0.091,0.038,0.126,0.067c0.036,0.029,0.066,0.064,0.091,0.106l-0.145,0.148
				c-0.021-0.03-0.044-0.055-0.068-0.076c-0.025-0.021-0.052-0.036-0.081-0.046c-0.028-0.01-0.058-0.015-0.088-0.015
				c-0.034,0-0.062,0.004-0.086,0.014c-0.024,0.009-0.043,0.022-0.057,0.04s-0.02,0.038-0.02,0.062c0,0.02,0.004,0.037,0.013,0.051
				c0.009,0.015,0.022,0.028,0.04,0.04s0.038,0.021,0.062,0.03c0.024,0.009,0.051,0.016,0.081,0.022
				c0.056,0.012,0.105,0.027,0.15,0.047c0.044,0.019,0.082,0.042,0.114,0.07s0.057,0.06,0.073,0.096
				c0.018,0.037,0.026,0.079,0.026,0.125c0,0.076-0.018,0.141-0.052,0.195s-0.082,0.095-0.143,0.123S-1.922,2.264-2.004,2.264z"/>
			<path fill="#0D7BD6" d="M-1.074,2.264c-0.076,0-0.146-0.02-0.206-0.058s-0.108-0.091-0.143-0.157
				c-0.035-0.066-0.053-0.142-0.053-0.227c0-0.084,0.018-0.159,0.053-0.226C-1.388,1.53-1.34,1.477-1.28,1.438
				S-1.15,1.38-1.074,1.38c0.072,0,0.138,0.014,0.197,0.042s0.106,0.066,0.14,0.116l-0.118,0.151
				c-0.015-0.02-0.032-0.039-0.053-0.055c-0.021-0.017-0.045-0.03-0.069-0.04s-0.051-0.015-0.076-0.015
				c-0.042,0-0.078,0.011-0.11,0.032C-1.196,1.632-1.22,1.66-1.239,1.697c-0.018,0.036-0.027,0.078-0.027,0.125
				c0,0.046,0.01,0.087,0.028,0.123c0.019,0.036,0.044,0.065,0.076,0.087s0.069,0.033,0.109,0.033c0.026,0,0.051-0.004,0.074-0.012
				s0.045-0.02,0.066-0.036c0.021-0.016,0.039-0.036,0.057-0.058l0.116,0.151C-0.773,2.156-0.82,2.194-0.881,2.222
				C-0.942,2.25-1.005,2.264-1.074,2.264z"/>
			<path fill="#0D7BD6" d="M-0.6,2.248V1.059h0.212v0.513L-0.43,1.591c0.011-0.039,0.031-0.073,0.06-0.105
				c0.029-0.032,0.063-0.057,0.104-0.077C-0.226,1.39-0.184,1.38-0.139,1.38c0.061,0,0.111,0.013,0.152,0.039
				c0.041,0.026,0.071,0.064,0.092,0.117c0.021,0.052,0.031,0.116,0.031,0.192v0.521h-0.215V1.745c0-0.039-0.005-0.071-0.016-0.097
				c-0.01-0.026-0.025-0.045-0.046-0.057s-0.046-0.018-0.076-0.015c-0.024,0-0.047,0.004-0.067,0.012
				c-0.021,0.008-0.039,0.02-0.054,0.034c-0.015,0.015-0.026,0.032-0.035,0.052c-0.008,0.019-0.013,0.04-0.013,0.062v0.511h-0.105
				c-0.023,0-0.044,0-0.062,0S-0.587,2.248-0.6,2.248z"/>
			<path fill="#0D7BD6" d="M0.716,2.264c-0.082,0-0.155-0.019-0.22-0.057c-0.063-0.038-0.114-0.09-0.151-0.157
				S0.29,1.908,0.29,1.822c0-0.086,0.018-0.162,0.055-0.228s0.088-0.118,0.151-0.157C0.56,1.4,0.633,1.38,0.716,1.38
				c0.08,0,0.153,0.02,0.217,0.058c0.064,0.039,0.115,0.091,0.151,0.157s0.055,0.142,0.055,0.228c0,0.085-0.019,0.162-0.055,0.228
				S0.997,2.169,0.932,2.207C0.869,2.245,0.796,2.264,0.716,2.264z M0.716,2.065c0.039,0,0.074-0.011,0.105-0.032
				c0.031-0.021,0.056-0.05,0.074-0.086C0.913,1.91,0.922,1.868,0.922,1.822c0-0.047-0.009-0.089-0.026-0.126
				C0.877,1.659,0.852,1.63,0.821,1.609C0.79,1.589,0.755,1.578,0.716,1.578c-0.041,0-0.076,0.011-0.107,0.032
				C0.576,1.632,0.551,1.66,0.533,1.697C0.515,1.733,0.507,1.775,0.508,1.822C0.507,1.868,0.515,1.91,0.533,1.947
				c0.019,0.037,0.043,0.066,0.075,0.086C0.639,2.054,0.675,2.065,0.716,2.065z"/>
			<path fill="#0D7BD6" d="M1.301,2.248V1.059h0.216v1.189H1.301z"/>
			<path fill="#0D7BD6" d="M2.035,2.264c-0.066,0-0.127-0.02-0.18-0.058C1.801,2.168,1.758,2.115,1.727,2.049S1.68,1.906,1.68,1.821
				c0-0.085,0.016-0.162,0.048-0.228s0.075-0.118,0.13-0.156S1.974,1.38,2.045,1.38c0.039,0,0.075,0.006,0.107,0.019
				c0.033,0.012,0.062,0.029,0.087,0.051s0.046,0.046,0.062,0.074c0.018,0.028,0.029,0.058,0.037,0.09L2.293,1.605V1.398h0.214
				v0.851H2.29V2.044l0.049-0.005c-0.009,0.03-0.021,0.059-0.04,0.085c-0.018,0.027-0.04,0.051-0.067,0.072
				c-0.026,0.021-0.057,0.038-0.09,0.05S2.072,2.264,2.035,2.264z M2.094,2.067c0.04,0,0.075-0.01,0.105-0.031
				c0.03-0.02,0.054-0.049,0.071-0.086c0.017-0.037,0.024-0.08,0.024-0.129c0-0.048-0.008-0.09-0.024-0.127
				C2.254,1.657,2.23,1.629,2.2,1.608S2.134,1.576,2.094,1.576S2.02,1.587,1.99,1.608c-0.029,0.021-0.053,0.05-0.07,0.086
				C1.903,1.73,1.894,1.772,1.894,1.821c0,0.049,0.009,0.093,0.025,0.129c0.018,0.037,0.041,0.066,0.07,0.086
				C2.02,2.056,2.054,2.067,2.094,2.067z"/>
			<path fill="#0D7BD6" d="M2.721,2.248V1.398h0.208l0.008,0.273L2.901,1.615c0.012-0.044,0.031-0.084,0.059-0.12
				c0.027-0.036,0.06-0.064,0.097-0.084C3.092,1.39,3.132,1.38,3.172,1.38c0.018,0,0.034,0.001,0.051,0.005
				c0.016,0.003,0.029,0.007,0.04,0.011L3.205,1.647C3.193,1.641,3.178,1.635,3.161,1.63C3.144,1.625,3.127,1.623,3.108,1.623
				c-0.024,0-0.047,0.005-0.067,0.014C3.02,1.646,3.003,1.658,2.987,1.675S2.96,1.711,2.952,1.734
				C2.943,1.757,2.938,1.781,2.938,1.808v0.44H2.721z"/>
			<path fill="#0D7BD6" d="M3.655,2.264c-0.074,0-0.141-0.013-0.199-0.04c-0.058-0.026-0.104-0.062-0.14-0.108l0.133-0.122
				C3.48,2.03,3.515,2.055,3.553,2.071s0.077,0.023,0.115,0.023c0.016,0,0.029-0.002,0.042-0.006
				c0.013-0.003,0.023-0.009,0.032-0.016c0.009-0.007,0.016-0.015,0.021-0.025S3.77,2.026,3.77,2.013
				c0-0.023-0.009-0.042-0.027-0.056c-0.01-0.005-0.025-0.012-0.047-0.02C3.675,1.929,3.647,1.92,3.614,1.911
				c-0.051-0.014-0.095-0.03-0.131-0.049c-0.036-0.019-0.064-0.04-0.086-0.063C3.38,1.776,3.365,1.751,3.356,1.725
				C3.346,1.699,3.342,1.67,3.342,1.637c0-0.039,0.008-0.074,0.024-0.105c0.016-0.031,0.038-0.059,0.067-0.081
				c0.028-0.022,0.062-0.04,0.099-0.052C3.57,1.386,3.609,1.38,3.651,1.38c0.041,0,0.081,0.005,0.121,0.016
				c0.039,0.011,0.076,0.026,0.109,0.046c0.034,0.02,0.063,0.043,0.089,0.07L3.855,1.647c-0.019-0.019-0.039-0.035-0.062-0.05
				c-0.022-0.015-0.046-0.027-0.07-0.036C3.699,1.553,3.677,1.549,3.658,1.549c-0.017,0-0.032,0.001-0.046,0.005
				C3.598,1.557,3.587,1.562,3.578,1.568C3.569,1.575,3.562,1.583,3.557,1.593C3.552,1.603,3.55,1.614,3.55,1.626
				S3.553,1.649,3.559,1.66c0.005,0.011,0.013,0.02,0.023,0.027C3.593,1.694,3.61,1.701,3.632,1.71
				C3.653,1.718,3.683,1.728,3.72,1.738c0.049,0.014,0.09,0.03,0.123,0.047c0.034,0.017,0.062,0.037,0.081,0.06
				c0.018,0.019,0.03,0.041,0.038,0.066C3.97,1.935,3.975,1.963,3.975,1.993c0,0.052-0.015,0.099-0.042,0.141
				C3.905,2.175,3.867,2.207,3.819,2.23C3.77,2.253,3.716,2.264,3.655,2.264z"/>
			<path fill="#0D7BD6" d="M4.128,2.248V1.059h0.213v0.513L4.298,1.591c0.012-0.039,0.031-0.073,0.061-0.105
				c0.028-0.032,0.062-0.057,0.104-0.077C4.502,1.39,4.545,1.38,4.589,1.38c0.061,0,0.111,0.013,0.152,0.039
				c0.041,0.026,0.072,0.064,0.093,0.117c0.021,0.052,0.031,0.116,0.031,0.192v0.521H4.649V1.745c0-0.039-0.005-0.071-0.015-0.097
				C4.624,1.623,4.609,1.604,4.588,1.592C4.567,1.579,4.542,1.574,4.511,1.576c-0.024,0-0.047,0.004-0.067,0.012
				c-0.021,0.008-0.038,0.02-0.053,0.034C4.377,1.638,4.365,1.655,4.356,1.675c-0.009,0.019-0.013,0.04-0.013,0.062v0.511H4.237
				c-0.023,0-0.044,0-0.062,0C4.157,2.248,4.141,2.248,4.128,2.248z"/>
			<path fill="#0D7BD6" d="M5.195,1.223c-0.041,0-0.073-0.011-0.097-0.032S5.063,1.138,5.063,1.099c0-0.037,0.012-0.066,0.036-0.089
				c0.023-0.023,0.056-0.034,0.096-0.034c0.042,0,0.074,0.011,0.098,0.033C5.315,1.03,5.327,1.06,5.327,1.099
				c0,0.038-0.012,0.067-0.035,0.09C5.267,1.211,5.236,1.223,5.195,1.223z M5.09,2.248V1.398h0.215v0.851H5.09z"/>
			<path fill="#0D7BD6" d="M5.534,2.602V1.398h0.208l0.006,0.191L5.709,1.575C5.716,1.54,5.733,1.509,5.76,1.48
				c0.028-0.029,0.062-0.052,0.104-0.071c0.041-0.018,0.084-0.027,0.13-0.027c0.069,0,0.132,0.019,0.186,0.057
				s0.097,0.09,0.129,0.156s0.048,0.142,0.048,0.228c0,0.084-0.016,0.16-0.047,0.227S6.236,2.168,6.181,2.206
				S6.064,2.263,5.995,2.263c-0.046,0-0.091-0.01-0.133-0.028S5.785,2.191,5.756,2.16s-0.048-0.064-0.055-0.1l0.05-0.022v0.564
				H5.534z M5.947,2.067c0.039,0,0.074-0.01,0.104-0.031c0.031-0.02,0.055-0.049,0.072-0.086c0.017-0.037,0.025-0.08,0.025-0.127
				c0-0.048-0.009-0.091-0.025-0.127C6.105,1.659,6.082,1.631,6.051,1.61S5.986,1.579,5.947,1.579c-0.041,0-0.076,0.01-0.106,0.03
				c-0.03,0.02-0.054,0.048-0.071,0.085s-0.025,0.08-0.025,0.128c0,0.048,0.008,0.091,0.025,0.127
				C5.787,1.987,5.81,2.016,5.841,2.036C5.871,2.056,5.906,2.067,5.947,2.067z"/>
			<path fill="#0D7BD6" d="M6.789,2.264c-0.074,0-0.141-0.013-0.199-0.04C6.532,2.199,6.485,2.162,6.45,2.116l0.133-0.122
				C6.614,2.03,6.649,2.055,6.687,2.071c0.039,0.016,0.077,0.023,0.115,0.023c0.016,0,0.029-0.002,0.042-0.006
				c0.013-0.003,0.023-0.009,0.032-0.016c0.01-0.007,0.017-0.015,0.021-0.025c0.005-0.01,0.007-0.021,0.007-0.033
				c0-0.023-0.009-0.042-0.027-0.056c-0.01-0.005-0.025-0.012-0.047-0.02C6.809,1.929,6.782,1.92,6.749,1.911
				c-0.052-0.014-0.096-0.03-0.132-0.049c-0.035-0.019-0.064-0.04-0.085-0.063C6.513,1.776,6.5,1.751,6.49,1.725
				C6.48,1.699,6.475,1.67,6.475,1.637c0-0.039,0.008-0.074,0.024-0.105c0.017-0.031,0.039-0.059,0.067-0.081
				c0.029-0.022,0.062-0.04,0.1-0.052C6.704,1.386,6.743,1.38,6.785,1.38c0.041,0,0.082,0.005,0.121,0.016s0.076,0.026,0.109,0.046
				c0.034,0.02,0.063,0.043,0.089,0.07L6.989,1.647c-0.018-0.019-0.038-0.035-0.062-0.05c-0.022-0.015-0.046-0.027-0.07-0.036
				C6.833,1.553,6.811,1.549,6.793,1.549c-0.018,0-0.033,0.001-0.047,0.005C6.732,1.557,6.721,1.562,6.712,1.568
				C6.703,1.575,6.696,1.583,6.691,1.593c-0.004,0.01-0.007,0.021-0.007,0.033S6.687,1.649,6.693,1.66s0.014,0.02,0.023,0.027
				C6.727,1.694,6.744,1.701,6.765,1.71c0.022,0.009,0.052,0.018,0.089,0.029c0.049,0.014,0.09,0.03,0.124,0.047
				c0.033,0.017,0.061,0.037,0.081,0.06c0.017,0.019,0.029,0.041,0.037,0.066c0.009,0.024,0.013,0.052,0.013,0.082
				c0,0.052-0.014,0.099-0.042,0.141C7.04,2.175,7.002,2.207,6.953,2.23S6.849,2.264,6.789,2.264z"/>
		</g>
	</g>
</g>
</svg>
